<svg xmlns="http://www.w3.org/2000/svg" width="28" height="28" viewBox="0 0 28 28"><defs><style>.a{fill:#3eb53e;}.b{fill:none;}.c{fill:#fff;}</style></defs><g transform="translate(-3488 286)"><path class="a" d="M4,0H24a4,4,0,0,1,4,4V24a4,4,0,0,1-4,4H4a4,4,0,0,1-4-4V4A4,4,0,0,1,4,0Z" transform="translate(3488 -286)"/><g transform="translate(3488 -282)"><path class="b" d="M0,0H24V24H0Z"/><path class="c" d="M8.9,13.579l7.6-7.6,1.17,1.169L8.9,15.917,3.636,10.656,4.805,9.487Z" transform="translate(3 0.083)"/></g></g></svg>